<svg width="107" height="120" viewBox="0 0 107 120" fill="none" xmlns="http://www.w3.org/2000/svg">
<path d="M73.2105 108.383V116.829C73.2105 118.237 72.3658 119.926 68.9868 115.421L67.5789 114.014L64.7632 119.644C64.7632 120.113 64.2 120.489 61.9474 118.237L60.5395 116.829L57.7237 119.644C57.7237 120.113 57.1605 120.489 54.9079 118.237L53.5 116.829L50.6842 118.237L49.2763 112.606L43.6447 116.829L42.2368 109.791L38.0132 111.199L39.4211 105.568H33.7895L35.1974 101.346L52.0921 91.4925L40.8289 92.9001L60.5395 80.2319H54.9079L56.3158 76.0092L49.2763 80.2319L50.6842 76.0092L42.2368 80.2319L52.0921 68.9713L39.4211 77.4168L40.8289 73.194H30.9737L35.1974 70.3789L26.75 68.9713L29.5658 67.5637L19.7105 63.341L23.9342 61.9334L14.0789 57.7107L19.7105 56.3031L7.03947 47.8576H12.6711L4.22368 42.2273L5.63158 38.0046L0 30.9667L4.22368 29.5591L1.40789 23.9288H5.63158L1.40789 19.7061H7.03947L0 11.2606L59.1316 47.8576V40.8197L63.3553 33.7819L66.1711 30.9667L71.8026 29.5591H80.25L84.4737 19.7061L88.6974 25.3364V12.6682L91.5132 9.85304L92.9211 14.0758L94.3289 8.44546L98.5526 4.22273L99.9605 8.44546L107 0L105.592 38.0046L102.776 42.2273V52.0804L98.5526 57.7107L99.9605 60.5258V76.0092L94.3289 84.4546L90.1053 85.8622L84.4737 91.4925L77.4342 95.7153L78.8421 101.346L74.6184 104.161L78.8421 109.791L77.4342 112.606L73.2105 108.383Z" fill="#7257FF" fill-opacity="0.1"/>
</svg>
